<svg width="66" height="109" viewBox="0 0 66 109" fill="none" xmlns="http://www.w3.org/2000/svg">
<g filter="url(#filter0_d_2_692)">
<path d="M58.4376 0.0122292L44.0904 14.3732L42.2271 7.90905L43.5452 0L58.4376 0.0122292Z" fill="#8F6BAC"/>
<path d="M32.6431 0H44.0629V14.3495H32.6867V14.3694H18.343V28.5676H32.6867V42.9328H18.343V57.2943H18.3237V71.6553H4V0.00786636H32.6431V0Z" fill="url(#paint0_linear_2_692)"/>
<path d="M61.9994 35.6868C62.0629 46.6332 56.0974 56.5206 44.408 57.1475H32.6709V42.8658C33.0475 42.8858 40.9457 42.8222 41.0049 42.933C48.2378 42.7502 48.103 28.7063 40.8823 28.7499V28.6664H32.6709V28.6464L18.2329 28.6664V14.3048L32.7459 14.2812V14.3048H43.3897C54.5127 14.0828 62.0623 25.0219 61.9994 35.6868Z" fill="url(#paint1_linear_2_692)"/>
<path d="M32.6902 57.1913V85.7789L32.6866 85.7831L18.3472 100.136V57.1992H18.3115L32.6546 42.8383V57.1913H32.6902Z" fill="url(#paint2_linear_2_692)"/>
</g>
<defs>
<filter id="filter0_d_2_692" x="0" y="0" width="66" height="108.136" filterUnits="userSpaceOnUse" color-interpolation-filters="sRGB">
<feFlood flood-opacity="0" result="BackgroundImageFix"/>
<feColorMatrix in="SourceAlpha" type="matrix" values="0 0 0 0 0 0 0 0 0 0 0 0 0 0 0 0 0 0 127 0" result="hardAlpha"/>
<feOffset dy="4"/>
<feGaussianBlur stdDeviation="2"/>
<feComposite in2="hardAlpha" operator="out"/>
<feColorMatrix type="matrix" values="0 0 0 0 0.262745 0 0 0 0 0.14902 0 0 0 0 0.513726 0 0 0 0.2 0"/>
<feBlend mode="normal" in2="BackgroundImageFix" result="effect1_dropShadow_2_692"/>
<feBlend mode="normal" in="SourceGraphic" in2="effect1_dropShadow_2_692" result="shape"/>
</filter>
<linearGradient id="paint0_linear_2_692" x1="4" y1="35.8276" x2="44.0629" y2="35.8276" gradientUnits="userSpaceOnUse">
<stop stop-color="#432683"/>
<stop offset="1" stop-color="#8F6BAC"/>
</linearGradient>
<linearGradient id="paint1_linear_2_692" x1="18.4034" y1="35.7147" x2="62" y2="35.7147" gradientUnits="userSpaceOnUse">
<stop stop-color="#3B85C6"/>
<stop offset="1" stop-color="#3FBEEF"/>
</linearGradient>
<linearGradient id="paint2_linear_2_692" x1="18.3115" y1="71.4875" x2="32.6902" y2="71.4875" gradientUnits="userSpaceOnUse">
<stop stop-color="#3B85C6"/>
<stop offset="1" stop-color="#3FBEEF"/>
</linearGradient>
</defs>
</svg>
